<svg width="33" height="32" fill="none" xmlns="http://www.w3.org/2000/svg"><g clip-path="url(#clip0)" fill-rule="evenodd" clip-rule="evenodd" fill="#23A6F0"><path d="M28.875 2.087H4.125a2.05 2.05 0 00-1.458.611 2.1 2.1 0 00-.604 1.476V20.87a2.1 2.1 0 00.604 1.476 2.05 2.05 0 001.458.611h5.156c.64 0 1.272.15 1.845.44.573.29 1.071.711 1.455 1.23l3.919 5.286 3.919-5.286c.384-.519.882-.94 1.455-1.23a4.086 4.086 0 011.845-.44h5.156a2.05 2.05 0 001.458-.611 2.1 2.1 0 00.605-1.476V4.174a2.1 2.1 0 00-.605-1.476 2.05 2.05 0 00-1.458-.611zM4.125 0a4.1 4.1 0 00-2.917 1.223A4.2 4.2 0 000 4.174V20.87a4.2 4.2 0 001.208 2.951 4.1 4.1 0 002.917 1.223h5.156a2.046 2.046 0 011.65.835l3.919 5.286a2.043 2.043 0 003.3 0l3.919-5.286a2.043 2.043 0 011.65-.835h5.156a4.1 4.1 0 002.917-1.223A4.2 4.2 0 0033 20.87V4.174a4.2 4.2 0 00-1.208-2.951A4.1 4.1 0 0028.875 0H4.125z"/><path d="M14.521 10.529a3.508 3.508 0 00-1.745-1.32 3.759 3.759 0 00-2.24-.072 3.55 3.55 0 00-1.837 1.205 3.177 3.177 0 00-.204 3.694 3.45 3.45 0 001.344 1.223 3.733 3.733 0 001.82.41 3.712 3.712 0 001.788-.518c-.278.777-.797 1.605-1.652 2.436a.807.807 0 00-.25.594.81.81 0 00.27.585.92.92 0 00.633.234.916.916 0 00.623-.254c3.16-3.076 2.75-6.42 1.45-8.213v-.004zm8.508 0a3.508 3.508 0 00-1.745-1.32 3.759 3.759 0 00-2.24-.072 3.55 3.55 0 00-1.837 1.205 3.193 3.193 0 00-.699 2c0 .597.171 1.182.495 1.695.323.513.788.935 1.344 1.222a3.732 3.732 0 001.82.41 3.712 3.712 0 001.788-.518c-.278.777-.797 1.605-1.652 2.436a.807.807 0 00-.25.594.81.81 0 00.27.585.92.92 0 00.633.234.916.916 0 00.623-.254c3.16-3.076 2.75-6.42 1.45-8.213v-.004z"/></g><defs><clipPath id="clip0"><path fill="#fff" transform="translate(.5)" d="M0 0h32v32H0z"/></clipPath></defs></svg>