<svg width="49" height="38" fill="none" xmlns="http://www.w3.org/2000/svg"><path fill-rule="evenodd" clip-rule="evenodd" d="M46.416 37.667s3.084 0 3.084-3.111c0-3.112-3.084-12.445-15.417-12.445s-15.416 9.333-15.416 12.445c0 3.11 3.083 3.11 3.083 3.11h24.666zm-24.598-3.111h24.53a.784.784 0 00.044-.007l.024-.006c-.006-.821-.514-3.204-2.343-5.351-1.702-2.013-4.693-3.97-9.99-3.97-5.294 0-8.285 1.96-9.99 3.97-1.828 2.147-2.34 4.533-2.343 5.351l.068.013zm12.265-18.667a6.139 6.139 0 004.36-1.823 6.25 6.25 0 001.807-4.4c0-1.65-.65-3.232-1.806-4.4a6.139 6.139 0 00-4.36-1.822 6.139 6.139 0 00-4.361 1.823 6.25 6.25 0 00-1.806 4.4c0 1.65.65 3.232 1.806 4.4a6.139 6.139 0 004.36 1.822zm9.25-6.222a9.42 9.42 0 01-.704 3.571 9.342 9.342 0 01-2.005 3.028 9.243 9.243 0 01-3.001 2.024 9.177 9.177 0 01-7.08 0 9.245 9.245 0 01-3-2.024 9.34 9.34 0 01-2.006-3.028 9.406 9.406 0 01-.704-3.571c0-2.476.975-4.85 2.71-6.6a9.208 9.208 0 016.54-2.734c2.453 0 4.806.984 6.54 2.734a9.376 9.376 0 012.71 6.6zm-21.78 13.315a17.984 17.984 0 00-3.793-.768c-.724-.07-1.45-.104-2.177-.103C3.25 22.111.167 31.444.167 34.556c0 2.075 1.026 3.11 3.083 3.11h13a7.014 7.014 0 01-.667-3.11c0-3.143 1.163-6.353 3.361-9.035a16.38 16.38 0 012.608-2.539zm-6.217 2.24c-5.143.062-8.062 1.991-9.743 3.97-1.84 2.16-2.343 4.551-2.343 5.364h9.25c0-3.252.996-6.49 2.836-9.334zm-10.544-14c0-2.475.974-4.85 2.709-6.6a9.208 9.208 0 016.54-2.733c2.454 0 4.806.983 6.541 2.734a9.376 9.376 0 012.71 6.6 9.376 9.376 0 01-2.71 6.599 9.208 9.208 0 01-6.54 2.733A9.208 9.208 0 017.5 17.822a9.376 9.376 0 01-2.71-6.6zM14.042 5A6.139 6.139 0 009.68 6.822a6.25 6.25 0 00-1.806 4.4c0 1.65.65 3.233 1.806 4.4a6.139 6.139 0 004.36 1.822 6.139 6.139 0 004.361-1.822 6.25 6.25 0 001.806-4.4 6.25 6.25 0 00-1.806-4.4A6.139 6.139 0 0014.042 5z" fill="#23A6F0"/></svg>