<svg width="23" height="18" fill="none" xmlns="http://www.w3.org/2000/svg"><path d="M7.41 18c8.303 0 12.845-6.927 12.845-12.923 0-.194 0-.39-.009-.585A9.228 9.228 0 0022.5 2.136a9.105 9.105 0 01-2.597.717 4.565 4.565 0 001.99-2.516c-.888.53-1.858.9-2.87 1.098a4.491 4.491 0 00-5.425-.897 4.537 4.537 0 00-1.985 2.134 4.579 4.579 0 00-.285 2.909 12.754 12.754 0 01-5.153-1.378A12.839 12.839 0 012.024.833a4.581 4.581 0 00-.492 3.312A4.554 4.554 0 003.423 6.9a4.545 4.545 0 01-2.043-.565v.063a4.572 4.572 0 001.021 2.876A4.516 4.516 0 005 10.853a4.374 4.374 0 01-1.19.16c-.283 0-.565-.026-.844-.08.289.903.85 1.692 1.607 2.258a4.496 4.496 0 002.61.895 9.019 9.019 0 01-5.61 1.948A8.62 8.62 0 01.5 15.972 12.783 12.783 0 007.41 18z" fill="#23A6F0"/></svg>